<svg enable-background="new 0 0 425.5 322.4" viewBox="0 0 425.5 322.4" xmlns="http://www.w3.org/2000/svg"><path clip-rule="evenodd" d="m209.7 175.4c91.7 0 166.4-8.4 166.4-18.7s-74.8-18.7-166.4-18.7c-91.7 0-166.4 8.4-166.4 18.7 0 10.4 74.7 18.7 166.4 18.7z" fill="#00a1f5" fill-rule="evenodd"/><path clip-rule="evenodd" d="m168.9 110.3-31.1-65.3 12 66.1z" fill="#037ff3" fill-rule="evenodd"/><path clip-rule="evenodd" d="m152.9 158.6h-80.8l77.7-47.5z" fill="#0169e6" fill-rule="evenodd"/><path clip-rule="evenodd" d="m279.4 158.6v-22.4l-111.9-26.5-16.1 48.9z" fill="#0169e6" fill-rule="evenodd"/><path clip-rule="evenodd" d="m279.4 158.6v-22.1l39.4-53.1 19.5 75.2z" fill="#0440c4" fill-rule="evenodd"/><path clip-rule="evenodd" d="m149.8 111.1-12-66.1-65.8 113.6z" fill="#92def6" fill-rule="evenodd"/><path clip-rule="evenodd" d="m279.4 136.5-64.8-128.3-45.7 102.1z" fill="#92def6" fill-rule="evenodd"/><path clip-rule="evenodd" d="m318.8 83.4-104.2-75.2 64.8 128.3z" fill="#037ff3" fill-rule="evenodd"/><path clip-rule="evenodd" d="m168.9 110.3-19.1.8 3.1 47.5z" fill="#0440c4" fill-rule="evenodd"/><g fill="#3a3a3f"><path d="m10.3 199h10.8v64.2h-10.8z"/><path d="m68.3 253.4c3.7 0 7-.6 9.6-1.9 2.7-1.3 5.5-3.3 8.5-6l7 7.2c-6.8 7.5-15.1 11.3-24.8 11.3s-17.8-3.1-24.2-9.4c-6.4-6.2-9.6-14.2-9.6-23.7 0-9.6 3.3-17.5 9.8-23.9s14.8-9.6 24.7-9.6c10 0 18.3 3.7 25 11l-6.9 7.5c-3.1-2.9-6-5-8.7-6.2s-5.9-1.7-9.6-1.7c-6.5 0-11.9 2.1-16.4 6.3-4.4 4.2-6.6 9.6-6.6 16.1s2.2 12 6.6 16.4c4.4 4.5 9.6 6.6 15.6 6.6z"/><path d="m151.8 199v10.2h-34.3v17h30.8v9.6h-30.8v17.2h35.4v10.2h-46.2v-64.2z"/><path d="m194.9 263.3h-28.1v-64.3h25c4.3 0 8.1.5 11.3 1.6 3.2 1 5.5 2.5 7 4.2 2.9 3.3 4.4 7 4.4 11.2 0 5-1.6 8.8-4.8 11.2-1.2.9-2 1.4-2.4 1.6s-1.2.6-2.3 1.1c4 .9 7.2 2.7 9.5 5.4 2.4 2.7 3.5 6.1 3.5 10.2 0 4.5-1.5 8.4-4.6 11.9-3.6 3.9-9.8 5.9-18.5 5.9zm-17.3-37.6h13.8c7.8 0 11.8-2.7 11.8-8 0-3.1-1-5.3-2.8-6.6-1.9-1.3-4.8-2-8.8-2h-13.9v16.6zm0 27.6h17c4 0 7-.6 9.1-1.9s3.2-3.6 3.2-7.1c0-5.7-4.6-8.5-13.7-8.5h-15.6z"/><path d="m276.8 199v10.2h-34.3v17h30.8v9.6h-30.8v17.2h35.4v10.2h-46.2v-64.2z"/><path d="m343 219.9c0 10.6-4.6 17.3-13.9 20l16.8 23.3h-13.8l-15.3-21.6h-14.2v21.6h-10.8v-64.2h23.9c9.8 0 16.8 1.7 21 5s6.3 8.6 6.3 15.9zm-14.4 9.1c2.2-1.9 3.3-4.9 3.3-9.1s-1.1-7.1-3.4-8.6c-2.3-1.6-6.3-2.3-12.1-2.3h-13.8v23h13.5c6.1-.2 10.3-1.1 12.5-3z"/><path d="m403.1 232h10.9v22c-6.1 6.7-14.7 10-26 10-9.5 0-17.4-3.1-23.8-9.4-6.4-6.2-9.6-14.2-9.6-23.7 0-9.6 3.3-17.5 9.8-23.9s14.4-9.6 23.7-9.6 16.9 2.7 23.1 8.1l-5.8 8.3c-2.5-2.1-5-3.6-7.6-4.5-2.5-.8-5.5-1.2-8.9-1.2-6.5 0-11.9 2.1-16.4 6.3-4.4 4.2-6.6 9.7-6.6 16.5s2.1 12.3 6.4 16.5c4.3 4.1 9.5 6.2 15.6 6.2s11.2-1.3 15.3-4v-17.6z"/><path d="m16.3 303.2-4-12.9h-.1c.1 2.6.2 4.4.2 5.3v7.7h-3.1v-16.5h4.8l3.9 12.6 4.1-12.6h4.9v16.5h-3.3v-7.8c0-.4 0-.8 0-1.3s.1-1.8.2-3.8h-.1l-4.3 12.9h-3.2z"/><path d="m44.5 286.7v10.7c0 1.2-.3 2.3-.8 3.2s-1.3 1.6-2.4 2.1c-1 .5-2.3.7-3.7.7-2.1 0-3.8-.5-4.9-1.6-1.2-1.1-1.8-2.6-1.8-4.5v-10.6h3.5v10.1c0 1.3.3 2.2.8 2.8s1.4.9 2.5.9 2-.3 2.5-.9.8-1.5.8-2.8v-10.1z"/><path d="m48.6 303.2v-16.5h3.5v13.6h6.7v2.9z"/><path d="m68 303.2h-3.5v-13.6h-4.5v-2.9h12.5v2.9h-4.5z"/><path d="m75 303.2v-16.5h3.5v16.5z"/><path d="m81.3 298.4v-2.8h6.1v2.8z"/><path d="m90.1 303.2v-16.5h3.5v13.6h6.7v2.9z"/><path d="m113.3 303.2-1.2-3.9h-6l-1.2 3.9h-3.8l5.8-16.6h4.3l5.8 16.6zm-2.1-6.8c-1.1-3.6-1.7-5.6-1.9-6-.1-.5-.2-.8-.3-1.1-.2 1-1 3.3-2.1 7.1z"/><path d="m133.8 303.2h-4.4l-7.2-12.5h-.2c.1 2.2.2 3.8.2 4.7v7.8h-3.1v-16.5h4.4l7.2 12.4h.1c-.1-2.1-.2-3.7-.2-4.5v-7.8h3.1v16.4z"/><path d="m144.2 293.9h6.5v8.6c-1.1.3-2.1.6-3 .7s-1.9.2-2.9.2c-2.5 0-4.4-.7-5.7-2.2s-2-3.6-2-6.3.8-4.7 2.3-6.2 3.6-2.2 6.3-2.2c1.7 0 3.3.3 4.9 1l-1.2 2.8c-1.2-.6-2.5-.9-3.8-.9-1.5 0-2.7.5-3.6 1.5s-1.4 2.4-1.4 4.1c0 1.8.4 3.2 1.1 4.1s1.8 1.4 3.2 1.4c.7 0 1.5-.1 2.2-.2v-3.4h-3.1v-3z"/><path d="m168.1 286.7v10.7c0 1.2-.3 2.3-.8 3.2s-1.3 1.6-2.4 2.1c-1 .5-2.3.7-3.7.7-2.1 0-3.8-.5-4.9-1.6-1.2-1.1-1.8-2.6-1.8-4.5v-10.6h3.5v10.1c0 1.3.3 2.2.8 2.8s1.4.9 2.5.9 2-.3 2.5-.9.8-1.5.8-2.8v-10.1z"/><path d="m182.2 303.2-1.2-3.9h-6l-1.2 3.9h-3.8l5.8-16.6h4.3l5.8 16.6zm-2-6.8c-1.1-3.6-1.7-5.6-1.9-6-.1-.5-.2-.8-.3-1.1-.2 1-1 3.3-2.1 7.1z"/><path d="m194.3 293.9h6.5v8.6c-1.1.3-2.1.6-3 .7s-1.9.2-2.9.2c-2.5 0-4.4-.7-5.7-2.2s-2-3.6-2-6.3.8-4.7 2.3-6.2 3.6-2.2 6.3-2.2c1.7 0 3.3.3 4.9 1l-1.2 2.8c-1.2-.6-2.5-.9-3.8-.9-1.5 0-2.7.5-3.6 1.5s-1.4 2.4-1.4 4.1c0 1.8.4 3.2 1.1 4.1s1.8 1.4 3.2 1.4c.7 0 1.5-.1 2.2-.2v-3.4h-3.1v-3z"/><path d="m214.3 303.2h-9.5v-16.5h9.5v2.9h-6v3.6h5.6v2.9h-5.6v4.3h6z"/><path d="m230 293.9h6.5v8.6c-1.1.3-2.1.6-3 .7s-1.9.2-2.9.2c-2.5 0-4.4-.7-5.7-2.2s-2-3.6-2-6.3.8-4.7 2.3-6.2 3.6-2.2 6.3-2.2c1.7 0 3.3.3 4.9 1l-1.2 2.8c-1.2-.6-2.5-.9-3.8-.9-1.5 0-2.7.5-3.6 1.5s-1.4 2.4-1.4 4.1c0 1.8.4 3.2 1.1 4.1s1.8 1.4 3.2 1.4c.7 0 1.5-.1 2.2-.2v-3.4h-2.9z"/><path d="m250.6 303.2-1.2-3.9h-6l-1.2 3.9h-3.8l5.8-16.6h4.3l5.8 16.6zm-2-6.8c-1.1-3.6-1.7-5.6-1.9-6-.1-.5-.2-.8-.3-1.1-.2 1-1 3.3-2.1 7.1z"/><path d="m262.8 303.2h-3.5v-13.6h-4.5v-2.9h12.5v2.9h-4.5z"/><path d="m279.6 298.6c0 1.5-.5 2.7-1.6 3.5-1.1.9-2.6 1.3-4.5 1.3-1.8 0-3.3-.3-4.7-1v-3.3c1.1.5 2.1.8 2.8 1 .8.2 1.5.3 2.1.3.8 0 1.4-.1 1.8-.4s.6-.7.6-1.3c0-.3-.1-.6-.3-.9s-.4-.5-.8-.7c-.3-.2-1.1-.6-2.1-1.1s-1.8-.9-2.3-1.4c-.5-.4-.9-.9-1.2-1.5s-.5-1.3-.5-2c0-1.5.5-2.6 1.5-3.4s2.4-1.3 4.1-1.3c.9 0 1.7.1 2.5.3s1.6.5 2.4.9l-1.1 2.7c-.9-.4-1.6-.6-2.2-.8-.6-.1-1.1-.2-1.7-.2-.7 0-1.2.2-1.5.5s-.5.7-.5 1.2c0 .3.1.6.2.8s.4.5.7.7 1.1.6 2.2 1.2c1.5.7 2.6 1.5 3.2 2.2s.9 1.7.9 2.7z"/><path d="m282.6 286.7h5.1c2.3 0 4 .3 5.1 1s1.6 1.7 1.6 3.2c0 1-.2 1.8-.7 2.4s-1.1 1-1.8 1.1v.1c1 .2 1.8.7 2.3 1.3s.7 1.5.7 2.6c0 1.5-.5 2.7-1.6 3.5s-2.6 1.3-4.4 1.3h-6.2v-16.5zm3.5 6.5h2c.9 0 1.6-.1 2.1-.4.4-.3.6-.8.6-1.5 0-.6-.2-1.1-.7-1.4s-1.2-.4-2.2-.4h-1.8zm0 2.8v4.3h2.3c1 0 1.7-.2 2.1-.6.5-.4.7-.9.7-1.7 0-1.4-1-2.1-2.9-2.1h-2.2z"/><path d="m303.2 293.5 3.4-6.8h3.8l-5.5 10.1v6.4h-3.5v-6.3l-5.5-10.2h3.8z"/><path d="m334.6 303.2h-4l-2.2-8.7c-.1-.3-.2-.9-.4-1.9s-.3-1.6-.3-1.9c0 .4-.2 1.1-.3 2s-.3 1.5-.4 1.9l-2.2 8.6h-4l-4.2-16.5h3.4l2.1 9c.4 1.7.6 3.1.8 4.3 0-.4.1-1.1.3-2s.3-1.6.5-2.1l2.4-9.2h3.3l2.4 9.2c.1.4.2 1 .4 1.9s.3 1.6.4 2.2c.1-.6.2-1.3.4-2.2s.3-1.6.5-2.1l2.1-9h3.4z"/><path d="m350.4 303.2h-9.5v-16.5h9.5v2.9h-6v3.6h5.6v2.9h-5.6v4.3h6z"/><path d="m353.8 286.7h5.1c2.3 0 4 .3 5.1 1s1.6 1.7 1.6 3.2c0 1-.2 1.8-.7 2.4s-1.1 1-1.8 1.1v.1c1 .2 1.8.7 2.3 1.3s.7 1.5.7 2.6c0 1.5-.5 2.7-1.6 3.5s-2.6 1.3-4.4 1.3h-6.2v-16.5zm3.5 6.5h2c.9 0 1.6-.1 2.1-.4.4-.3.6-.8.6-1.5 0-.6-.2-1.1-.7-1.4s-1.2-.4-2.2-.4h-1.8zm0 2.8v4.3h2.3c1 0 1.7-.2 2.1-.6.5-.4.7-.9.7-1.7 0-1.4-1-2.1-2.9-2.1h-2.2z"/><path d="m379.1 298.6c0 1.5-.5 2.7-1.6 3.5-1.1.9-2.6 1.3-4.5 1.3-1.8 0-3.3-.3-4.7-1v-3.3c1.1.5 2.1.8 2.8 1 .8.2 1.5.3 2.1.3.8 0 1.4-.1 1.8-.4s.6-.7.6-1.3c0-.3-.1-.6-.3-.9s-.4-.5-.8-.7c-.3-.2-1.1-.6-2.1-1.1s-1.8-.9-2.3-1.4c-.5-.4-.9-.9-1.2-1.5s-.5-1.3-.5-2c0-1.5.5-2.6 1.5-3.4s2.4-1.3 4.1-1.3c.9 0 1.7.1 2.5.3s1.6.5 2.4.9l-1.1 2.7c-.9-.4-1.6-.6-2.2-.8-.6-.1-1.1-.2-1.7-.2-.7 0-1.2.2-1.5.5s-.5.7-.5 1.2c0 .3.1.6.2.8s.4.5.7.7 1.1.6 2.2 1.2c1.5.7 2.6 1.5 3.2 2.2s.9 1.7.9 2.7z"/><path d="m382.1 303.2v-16.5h3.5v16.5z"/><path d="m396.1 303.2h-3.5v-13.6h-4.5v-2.9h12.5v2.9h-4.5z"/><path d="m412.6 303.2h-9.5v-16.5h9.5v2.9h-6v3.6h5.6v2.9h-5.6v4.3h6z"/></g></svg>